<mxfile host="app.diagrams.net" modified="2023-08-18T13:35:33.426Z" agent="Mozilla/5.0 (Windows NT 10.0; Win64; x64) AppleWebKit/537.36 (KHTML, like Gecko) Chrome/115.0.0.0 Safari/537.36" etag="QKrnAaCZeIi5iZHyTzKo" version="21.6.8" type="device">
  <diagram name="Page-1" id="EH0Ue3S7aPyPafirTt1p">
    <mxGraphModel dx="1050" dy="572" grid="1" gridSize="10" guides="1" tooltips="1" connect="1" arrows="1" fold="1" page="1" pageScale="1" pageWidth="1654" pageHeight="1169" math="0" shadow="0">
      <root>
        <mxCell id="0" />
        <mxCell id="1" parent="0" />
        <mxCell id="vVgs8YxBFB7Y4m-YEprr-2" value="Triangulation" style="swimlane;whiteSpace=wrap;html=1;" parent="1" vertex="1">
          <mxGeometry x="130" y="120" width="600" height="340" as="geometry" />
        </mxCell>
        <mxCell id="vVgs8YxBFB7Y4m-YEprr-9" style="edgeStyle=orthogonalEdgeStyle;rounded=0;orthogonalLoop=1;jettySize=auto;html=1;" parent="vVgs8YxBFB7Y4m-YEprr-2" source="vVgs8YxBFB7Y4m-YEprr-3" target="vVgs8YxBFB7Y4m-YEprr-5" edge="1">
          <mxGeometry relative="1" as="geometry" />
        </mxCell>
        <mxCell id="vVgs8YxBFB7Y4m-YEprr-3" value="Estimated time delays" style="ellipse;whiteSpace=wrap;html=1;aspect=fixed;" parent="vVgs8YxBFB7Y4m-YEprr-2" vertex="1">
          <mxGeometry x="40" y="130" width="80" height="80" as="geometry" />
        </mxCell>
        <mxCell id="vVgs8YxBFB7Y4m-YEprr-10" style="edgeStyle=orthogonalEdgeStyle;rounded=0;orthogonalLoop=1;jettySize=auto;html=1;entryX=0;entryY=0.5;entryDx=0;entryDy=0;" parent="vVgs8YxBFB7Y4m-YEprr-2" source="vVgs8YxBFB7Y4m-YEprr-5" target="vVgs8YxBFB7Y4m-YEprr-6" edge="1">
          <mxGeometry relative="1" as="geometry" />
        </mxCell>
        <mxCell id="vVgs8YxBFB7Y4m-YEprr-5" value="Develop distance equations" style="rounded=1;whiteSpace=wrap;html=1;" parent="vVgs8YxBFB7Y4m-YEprr-2" vertex="1">
          <mxGeometry x="150" y="140" width="120" height="60" as="geometry" />
        </mxCell>
        <mxCell id="vVgs8YxBFB7Y4m-YEprr-11" style="edgeStyle=orthogonalEdgeStyle;rounded=0;orthogonalLoop=1;jettySize=auto;html=1;entryX=0;entryY=0.5;entryDx=0;entryDy=0;" parent="vVgs8YxBFB7Y4m-YEprr-2" source="vVgs8YxBFB7Y4m-YEprr-6" target="vVgs8YxBFB7Y4m-YEprr-7" edge="1">
          <mxGeometry relative="1" as="geometry" />
        </mxCell>
        <mxCell id="vVgs8YxBFB7Y4m-YEprr-6" value="Solving equations" style="rounded=1;whiteSpace=wrap;html=1;" parent="vVgs8YxBFB7Y4m-YEprr-2" vertex="1">
          <mxGeometry x="310" y="140" width="120" height="60" as="geometry" />
        </mxCell>
        <mxCell id="vVgs8YxBFB7Y4m-YEprr-7" value="Estimated position" style="ellipse;whiteSpace=wrap;html=1;aspect=fixed;" parent="vVgs8YxBFB7Y4m-YEprr-2" vertex="1">
          <mxGeometry x="480" y="130" width="80" height="80" as="geometry" />
        </mxCell>
      </root>
    </mxGraphModel>
  </diagram>
</mxfile>
